<svg width="745" height="808" viewBox="0 0 745 808" fill="none" xmlns="http://www.w3.org/2000/svg">
<path d="M345.733 0.932985C345.6 1.19965 345.2 12.6663 344.8 26.6663L344 51.9997L333.6 52.7997C326.533 53.1997 322.8 54.133 321.867 55.4663C320.267 57.9997 320.4 98.133 322 100.666C322.8 102 326.4 102.933 333.6 103.333L344 104L344.667 114.666L345.333 125.333L388.533 125.733C419.2 126 432.267 125.6 433.467 124.533C434.933 123.333 435.333 114.133 435.333 75.9997V28.933L421.2 14.7997L407.067 0.666318H376.533C359.733 0.666318 345.867 0.799652 345.733 0.932985ZM404.267 6.26632C404.8 7.19965 405.6 13.0663 406 19.333L406.667 30.6663L417.333 31.0663C423.067 31.333 428.667 32.133 429.6 32.933C430.933 33.9997 431.333 43.5996 431.333 76.7997C431.333 119.066 431.333 119.2 428.4 121.2C425.867 123.066 419.867 123.333 390.4 123.333C370.933 123.333 354 122.8 352.133 122C348.933 120.8 348.667 120.133 348.667 112V103.333H371.2C383.6 103.333 395.333 102.8 397.2 102L400.667 100.666V78.133C400.667 62.133 400.267 55.1997 399.067 54.533C398.267 53.9997 388 53.5997 376.4 53.733C364.8 53.8663 353.867 53.333 352 52.6663L348.667 51.333V28.933C348.667 16.533 349.067 5.99965 349.6 5.59965C350 5.06632 362.267 4.66632 376.8 4.66632C396.4 4.66632 403.467 5.06632 404.267 6.26632ZM422 20.133C426.133 24.933 426.267 25.1997 423.867 26.933C421.467 28.6663 412.933 28.3997 409.733 26.533C408.533 25.733 408.267 13.4663 409.467 12.2663C410.933 10.7997 417.333 14.933 422 20.133ZM392.933 58.933C395.067 60.7997 395.333 63.333 395.333 78.133C395.333 91.8663 394.933 95.5997 393.2 97.1997C391.467 99.0663 386.533 99.333 360.533 99.333C341.867 99.333 328.8 98.7997 327.2 97.9997C324.933 96.6663 324.667 94.933 324.667 77.8663C324.667 59.8663 324.8 59.1997 327.733 57.9997C329.333 57.333 344.133 56.7997 360.533 56.7997C386.533 56.6663 390.8 56.933 392.933 58.933Z" fill="#3D6224"/>
<path d="M374.8 69.4663C373.6 70.533 372.667 72.2663 372.667 73.0663C372.8 76.133 376.4 79.333 379.733 79.333C384.267 79.333 385.467 81.4663 381.867 83.333C379.733 84.533 378.667 84.3997 376.533 82.533C374.267 80.533 374 80.533 373.2 82.3997C371.867 85.8663 373.867 87.333 380 87.333C386.667 87.333 389.467 84.533 387.067 80.2663C386.4 78.7997 386.133 75.733 386.533 73.333C387.2 69.9997 386.933 68.7997 385.2 68.133C381.467 66.6663 376.933 67.333 374.8 69.4663ZM383.333 72.6663C384.933 73.733 384.933 73.9997 382.933 74.7997C380 75.8663 376.267 74.3997 377.333 72.6663C378.4 71.0663 380.667 70.933 383.333 72.6663Z" fill="#3D6224"/>
<path d="M335.867 71.5999C337.067 73.1999 338 75.8666 338 77.3332C338 78.7999 337.067 81.4666 335.867 83.0666C334 85.7332 334 85.9999 336 85.9999C337.067 85.9999 339.2 85.1999 340.667 84.3999C342.8 82.9332 343.6 83.1999 345.2 85.3332C348.267 89.4666 349.467 86.3999 346.8 81.3332C344.533 77.1999 344.533 76.6666 346.533 73.8666C347.733 72.1332 348.667 70.2666 348.667 69.7332C348.667 67.9999 344.933 68.5332 344.267 70.2666C343.867 71.5999 343.067 71.5999 340.8 70.2666C339.333 69.4666 337.067 68.6666 336 68.6666C334 68.6666 334 68.9332 335.867 71.5999Z" fill="#3D6224"/>
<path d="M353.333 77.5996L353.467 86.6663L361.2 87.0663C367.067 87.3329 368.8 87.0663 368.4 85.7329C368 84.7996 366 83.7329 363.867 83.3329C360.267 82.6663 360 82.2663 359.6 75.5996C359.2 69.4663 358.8 68.6663 356.267 68.6663C353.467 68.6663 353.333 69.1996 353.333 77.5996Z" fill="#3D6224"/>
<path d="M641.333 80.933C640.933 81.8663 640.533 94.933 640.4 110L640 137.333L627.6 138C618.667 138.533 614.8 139.2 614 140.666C613.333 141.733 612.667 153.2 612.667 166.133C612.667 184.133 613.067 190.133 614.533 192.133C616.133 194.133 618.533 194.8 628.267 195.333L640 196L640.667 208.666L641.333 221.333L691.6 221.733C741.067 222 741.867 222 743.333 219.333C744.4 217.466 744.667 200 744.4 163.333L744 110L728.667 94.6663L713.333 79.333H677.6C650.267 79.333 641.733 79.733 641.333 80.933ZM711.333 98.2663C711.733 106 712.533 112.933 713.067 113.6C713.733 114.133 720 114.933 727.067 115.333L740 116L740.4 165.333C740.667 210.533 740.533 214.8 738.4 216.266C735.2 218.666 648.667 218.8 646.267 216.4C645.333 215.466 644.667 210.8 644.667 205.066V195.333L671.067 195.066C701.6 194.8 700.8 194.933 703.067 193.6C705.333 192 705.333 141.466 703.067 139.733C702.133 139.066 689.067 138.4 674.133 138.266C659.2 138 646.4 137.6 645.867 137.2C645.2 136.8 644.667 124.533 644.667 109.866V83.333L677.733 83.5996L710.667 83.9996L711.333 98.2663ZM726.667 97.8663C736.267 106.933 735.733 108.933 724.4 108.4L716 108L715.6 100.8C715.2 93.0663 716 89.4663 717.867 90.2663C718.533 90.533 722.533 93.8663 726.667 97.8663ZM696.4 144.933C698.133 146.666 698.8 185.066 697.2 189.2C696.533 191.066 691.867 191.333 658.667 191.333C626.133 191.333 620.533 191.066 618.8 189.2C617.067 187.466 616.667 183.466 616.667 166.666C616.667 148.533 616.933 146 619.067 144.8C622.533 142.666 694.4 142.933 696.4 144.933Z" fill="#3D6224"/>
<path d="M630 157.2C630 158.267 630.667 159.6 631.333 160C633.467 161.333 632.933 170.8 630.667 172.667C628.533 174.4 627.867 178 629.733 178C630.267 178 632.133 176.8 634 175.333C638.267 172 640.267 172 641.333 175.333C641.733 176.8 643.333 178 644.8 178C648 178 648 177.6 643.867 171.333L640.4 166.133L643.2 161.467C645.333 158.133 645.6 156.667 644.533 155.867C643.6 155.333 642.133 156 641.2 157.333C639.6 159.467 638.933 159.6 635.733 158C633.6 156.933 631.6 155.867 631.067 155.6C630.4 155.333 630 156 630 157.2Z" fill="#3D6224"/>
<path d="M652.133 157.467C651.067 160.133 651.067 171.067 652.133 174.933C652.933 177.733 653.867 178 660.8 178C665.2 178 668.667 177.467 668.667 176.667C668.667 175.867 666.933 175.333 664.8 175.333C658.667 175.333 656.667 172.267 656.667 163.2C656.667 157.333 656.133 155.333 654.8 155.333C653.733 155.333 652.533 156.267 652.133 157.467Z" fill="#3D6224"/>
<path d="M674.267 156.933C673.467 157.733 672.667 159.466 672.667 160.666C672.667 163.333 676.8 167.333 679.467 167.333C682 167.333 684.667 170 684.667 172.266C684.667 175.2 680.8 175.866 678 173.333C676.4 171.866 674.533 171.333 673.067 172C670.933 172.8 670.933 173.066 673.867 175.466C677.867 178.8 686.133 178.8 689.067 175.6C691.867 172.533 692 168.8 689.333 167.866C687.867 167.2 687.467 165.466 687.6 161.466L688 156L682 155.6C678.533 155.333 675.333 155.866 674.267 156.933ZM685.333 161.333C685.333 162 684 162.8 682.4 163.066C680.267 163.333 679.333 162.8 679.333 161.333C679.333 159.866 680.267 159.333 682.4 159.6C684 159.866 685.333 160.533 685.333 161.333Z" fill="#3D6224"/>
<path d="M28.5333 91.0663C26.2667 92.6663 26 94.933 26 117.866C26 137.733 25.6 143.333 24.1333 144.533C23.0667 145.466 18.5333 146 13.4667 145.866C0.400003 145.466 0.66667 145.066 0.66667 170.933C0.66667 183.466 1.2 194 2 195.466C3.2 197.6 4.93334 198 13.0667 198C18.9333 198 23.4667 198.666 24.4 199.6C25.3333 200.533 26 205.2 26 211.466C26 219.6 26.4 221.866 28.1333 222.533C29.3333 222.933 50.5333 223.333 75.3333 223.333C110.4 223.333 120.667 222.933 121.733 221.6C124 218.933 123.6 121.066 121.333 116.666C120.267 114.8 114.4 108.266 108.133 102L96.6667 90.6663L63.7333 89.9997C38 89.4663 30.4 89.733 28.5333 91.0663ZM90.9333 95.5997C92 96.533 92.5333 100.666 92.2667 108.666C92.1333 115.066 92.5333 120.933 93.0667 121.6C93.7333 122.133 98.9333 122.533 104.667 122.4C112.4 122.133 115.733 122.533 117.067 123.866C118.667 125.466 118.933 133.466 118.8 170.933C118.8 195.733 118.133 216.8 117.6 217.6C116 220 34 220.133 31.6 217.733C29.4667 215.6 29.4667 201.2 31.7333 199.733C32.5333 199.2 45.0667 198.4 59.3333 198L85.3333 197.333V172V146.666L60.1333 146.266C38.9333 146 34.4 145.6 32.4 143.733C30.2667 141.866 30 139.066 30 119.333C30 102.4 30.4 96.6663 31.7333 95.4663C32.9333 94.533 43.0667 93.8663 59.4667 93.733C85.8667 93.333 88.1333 93.4663 90.9333 95.5997ZM107.733 109.066C114.133 115.733 113.733 118.533 106.533 119.066C99.3333 119.6 96.6667 116.933 96.6667 109.466C96.6667 106.4 97.0667 103.466 97.4667 102.933C98.9333 101.466 102.667 103.733 107.733 109.066ZM77.3333 150L80.6667 151.333V171.733C80.6667 185.866 80.1333 192.666 79.0667 193.733C77.8667 194.933 68 195.333 43.2 195.333C13.4667 195.333 8.53334 195.066 6.66667 193.2C4.93334 191.466 4.66667 188 4.93334 170.933L5.33334 150.8L8.66667 149.866C13.7333 148.533 73.6 148.533 77.3333 150Z" fill="#3D6224"/>
<path d="M59.6 161.466C55.0667 164.666 56.2667 168.8 62.6667 172.133C68.8 175.2 70.5334 179.333 65.8667 179.333C64.2667 179.333 61.7334 178.4 60.4 177.2C58.2667 175.066 58 175.2 57.2 177.333C55.3334 182.133 65.4667 185.466 70.2667 181.6C74 178.8 74.4 174.4 71.4667 171.733C68.9334 169.6 68.8 169.333 71.0667 166.933C73.2 164.533 73.2 164.266 70.1334 161.866C66.4 158.8 63.6 158.666 59.6 161.466ZM68.4 165.6C68.6667 166.666 67.6 167.333 65.4667 167.333C63.2 167.333 62 166.666 62 165.2C62 162.666 67.4667 163.066 68.4 165.6Z" fill="#3D6224"/>
<path d="M16.6667 162.667C16.6667 163.867 17.6 166.267 18.8 168C20.8 171.067 20.8 171.6 18.1334 175.733C16.5334 178.267 15.3334 180.667 15.3334 181.2C15.3334 182.8 18.5334 182 20.9334 179.733C23.2 177.733 23.6 177.733 27.3334 180.4C32.1334 184 33.8667 182 30 177.067C27.2 173.333 27.3334 167.467 30.4 163.6C32.6667 160.8 30.5334 160.267 26.8 162.8C23.4667 164.8 23.0667 164.8 20.8 162.8C17.8667 160.133 16.6667 160.133 16.6667 162.667Z" fill="#3D6224"/>
<path d="M36.9334 171.6L37.3334 182.667H44.4C52.4 182.667 53.8667 180.267 46.4 179.333L41.3334 178.667L40.9334 169.6C40.6667 162.8 40.1334 160.667 38.5334 160.667C36.9334 160.667 36.6667 162.667 36.9334 171.6Z" fill="#3D6224"/>
<path d="M383.467 149.866C382 153.466 380.667 156.8 380.667 157.2C380.667 158 368.533 178.4 367.333 179.333C366.933 179.733 365.067 182.533 362.933 185.6C353.6 200.133 326.267 223.6 307.2 233.466C299.733 237.466 299.867 238 309.067 244.133C316.533 249.066 323.333 255.333 324.8 258.666C325.467 260.133 326.533 262.266 327.333 263.333C331.2 269.466 335.333 284.533 335.333 292.4C335.067 316.4 319.6 336.4 294.133 345.333C285.6 348.266 269.067 348 260.4 344.533C252.667 341.466 236.667 330.266 236.667 328C236.667 327.066 235.467 325.333 234.133 324.133C232.667 322.8 230.267 319.066 228.667 315.866C226.933 312 224 308.666 220.267 306.266C215.333 303.2 200.8 292.533 152.8 257.066C139.867 247.466 134 243.333 133.333 243.333C131.333 243.333 133.467 249.2 138.267 256.666C143.733 265.066 146 268.8 152 280.266C153.6 283.333 156.267 287.6 157.867 289.733C159.333 292 160.667 294.266 160.667 294.8C160.667 295.333 163.333 300 166.4 305.2C172.8 315.6 178.267 325.066 182.8 333.333C184.267 336.266 186.933 340.8 188.4 343.333C190 345.866 192.933 350.933 194.933 354.533C197.067 358.133 199.333 362 200 363.2C202 366.4 218.267 394.667 221.6 400.933C224.267 405.6 224.667 408.533 224.933 424.533L225.333 442.667H386.667H548L548.667 424C549.333 406.267 549.6 404.933 553.867 396C556.267 390.8 563.333 375.867 569.6 362.666C584.533 331.2 593.067 313.333 603.867 291.066C608.667 280.933 612.667 272.266 612.667 271.6C612.667 270.933 615.333 265.333 618.667 259.066C628.533 240.133 627.333 240.133 606.4 258.666C597.733 266.4 587.333 275.6 583.333 279.2C575.867 285.866 563.333 296.8 554.933 304C552.267 306.133 548.533 311.2 546.533 315.066C539.067 329.466 526 340.533 511.467 345.066C502.133 348 487.2 347.866 478.667 344.8C466.933 340.666 464.133 338.933 456.933 332.133C449.2 324.666 440.8 308.933 440.533 301.6C440.4 299.2 440 295.866 439.467 294C438.533 290.533 440.533 277.733 443.333 270.266C447.333 259.466 455.867 249.866 469.067 241.6C473.467 238.8 473.6 236.933 469.467 235.466C465.2 233.733 452 225.333 444.667 219.466C436.933 213.333 418.4 194.933 414.533 189.466C401.333 171.2 394.133 159.333 391.333 150.8C388.667 142.666 386.667 142.533 383.467 149.866ZM390.4 379.6C395.467 389.733 408.533 425.333 407.6 426.267C406.933 426.933 397.867 427.2 387.2 427.067C370.667 426.667 368 426.4 367.6 424.533C366.933 420.667 384.933 375.333 387.067 375.333C387.733 375.333 389.2 377.333 390.4 379.6Z" fill="#3D6224"/>
<path d="M225.467 467.6C224.267 472.133 224.533 494.4 225.733 496.4C226.667 497.733 259.867 498 387.467 497.733L548 497.333L548.4 484C548.667 476.667 548.4 469.333 548 467.6L547.333 464.667H386.8H226.267L225.467 467.6ZM253.733 476.133C259.6 480.133 255.6 488.667 247.733 488.667C244.8 488.667 240.667 484.267 240.667 481.067C240.667 478.533 245.6 474 248.4 474C249.733 474 252.133 474.933 253.733 476.133ZM287.467 475.333C290.4 476.933 291.067 484.4 288.4 487.067C286.133 489.333 282 489.067 279.067 486.4C275.867 483.467 275.733 475.733 279.067 474.933C283.067 473.867 284.8 474 287.467 475.333ZM323.6 476.533C326.133 478.933 325.2 485.6 321.867 487.333C315.6 490.8 308.667 484.933 311.467 478.8C312.4 476.933 314 475.2 315.2 474.933C317.6 474.267 322.133 475.2 323.6 476.533ZM357.6 477.2C360.8 480 361.067 480.667 359.6 483.867C357.6 488.267 352.4 489.6 348 486.8C343.733 484 343.733 480.267 348.133 476.8C352.533 473.333 353.067 473.333 357.6 477.2ZM392.667 476.667C396 480 396 482.133 392.667 485.733C389.6 489.067 386.267 489.467 383.067 486.933C379.067 484 379.467 477.067 383.733 475.333C388.267 473.6 389.733 473.733 392.667 476.667ZM425.2 475.333C427.733 476.267 428.667 477.6 428.667 480.133C428.667 486.933 421.2 491.333 416.933 487.067C414.533 484.667 414.933 477.067 417.733 475.467C420.667 473.733 421.067 473.733 425.2 475.333ZM460.933 475.6C464.667 478.533 465.067 482.933 462.133 485.867C458.8 489.2 454.4 489.467 451.067 486.4C447.867 483.6 448 480 451.333 476.667C454.4 473.6 457.867 473.2 460.933 475.6ZM496.933 477.067C499.6 481.2 496.8 488.667 492.667 488.667C488.533 488.667 485.867 487.067 484.667 484C483.2 480 484.4 475.6 487.2 474.933C490.267 474 495.733 475.2 496.933 477.067ZM531.6 477.067C533.6 480.133 532.667 485.867 530.133 487.333C526.267 489.333 523.6 488.933 520.667 486C517.2 482.533 517.333 480 520.8 476.533C523.733 473.6 529.6 473.867 531.6 477.067Z" fill="#3D6224"/>
<path d="M463.6 526.533C458.667 528.4 450.933 535.2 448.4 540C447.467 541.733 443.467 548.8 439.733 555.733C431.867 569.733 430.8 576.267 434.933 583.733C437.733 588.667 443.333 595.333 444.8 595.333C445.467 595.333 451.467 598.667 458.267 602.933C469.067 609.467 471.733 610.533 478.933 611.067C483.467 611.333 488.667 611.333 490.4 610.8C493.467 610.133 504.667 599.867 504.667 597.733C504.667 597.2 508 591.2 512.133 584.533C518.133 574.533 519.6 570.933 519.867 565.467C520.533 553.867 514.267 544.133 503.333 539.467C501.467 538.667 498.8 537.2 497.333 536.4C485.467 528.8 475.733 524.533 470.667 524.8C469.2 524.933 466 525.733 463.6 526.533ZM478 544C479.867 544.933 483.2 546.667 485.333 547.733C490.933 550.4 499.333 556.267 501.467 559.067C504.533 562.933 503.6 567.467 497.867 577.2C488.8 592.533 486.4 595.333 481.867 595.333C475.2 595.333 454 582.667 450.267 576.4C448.267 573.067 448.4 572.533 454.8 561.333C465.333 542.533 469.733 539.2 478 544Z" fill="#3D6224"/>
<path d="M252.667 536.8C241.733 541.6 238 551.066 238 574.4C238 588.8 238.4 592.133 240.667 596.4C244.4 603.466 246 605.066 252.4 608.4C257.6 611.066 260 611.333 278.4 611.333C298.267 611.2 298.8 611.2 304 607.6C307.333 605.333 310.533 601.466 312.4 597.466C315.333 591.466 315.6 589.2 315.467 571.2C315.467 546.8 314 543.2 301.2 537.2C295.067 534.266 292.667 534 276.533 534C261.6 534.133 257.6 534.533 252.667 536.8ZM296.667 554C298.933 556.8 299.333 559.6 299.333 573.6C299.333 589.6 299.333 589.866 295.867 592.533C292.667 595.066 290.533 595.333 276.8 595.333C255.2 595.2 254 594 254 572C254 558 254 557.733 258 553.733L262 549.733L278.133 550.266C293.467 550.666 294.267 550.8 296.667 554Z" fill="#3D6224"/>
<path d="M352 535.733C349.867 536.8 345.867 540 343.067 543.066C336.8 550 334.933 558.933 335.6 577.866C336.267 595.733 339.067 601.733 350.133 608.4C354.533 611.066 356.667 611.333 375.6 611.333H396.267L401.6 607.466C411.733 600.133 412.667 597.333 412.667 572.533C412.667 551.466 412.533 550.4 409.333 545.733C407.6 543.066 403.867 539.466 401.067 537.866C396.4 534.933 394.4 534.666 376 534.266C361.467 534.133 354.933 534.533 352 535.733ZM393.733 552.133C396.533 554 396.667 555.066 396.667 572.533C396.667 596.4 397.6 595.6 374.667 595.066C357.733 594.666 357.6 594.666 354.8 590.933C352.667 588 351.867 584.666 351.467 576.533C350.933 563.066 352 557.2 356 553.2C359.067 550.133 360.133 550 374.933 550C387.067 550 391.467 550.533 393.733 552.133Z" fill="#3D6224"/>
<path d="M254.533 633.333C248.533 636.4 241.867 643.866 239.733 649.6C237.2 657.2 237.467 686.933 240.133 693.466C242.667 699.466 247.467 704.266 253.467 706.8C258.933 709.066 294.4 709.466 300 707.333C305.333 705.333 311.067 699.6 313.333 694.266C314.667 691.333 315.333 683.466 315.467 669.466C315.6 649.6 315.6 648.933 312.133 643.6C306.267 634.266 300.667 632.266 278 631.733C262.4 631.333 257.867 631.6 254.533 633.333ZM294.133 649.066C298.4 652.266 299.333 656.533 299.333 671.866C299.333 692.933 299.6 692.666 277.333 692.666C254.4 692.666 253.333 691.6 254.267 667.333C254.667 654.133 254.8 653.6 258.667 650.533C262.4 647.6 263.867 647.333 277.333 647.333C286.8 647.466 292.8 648 294.133 649.066Z" fill="#3D6224"/>
<path d="M350.667 634.4C347.867 636 343.467 639.866 341.2 642.933C336 649.733 334.533 659.333 335.733 679.2C336.533 693.6 338.8 698.8 347.333 704.666C351.733 707.733 353.2 708 373.333 708.4C398 708.8 400.933 708 408.267 698.266L412.667 692.4V670.266C412.667 648.533 412.533 647.866 409.2 642.933C406.933 639.6 403.333 636.8 398.667 634.666C392.133 631.6 389.733 631.333 373.733 631.333C357.867 631.333 355.467 631.733 350.667 634.4ZM393.2 650.133C396.667 652.8 396.667 653.066 396.667 670.666C396.667 693.333 397.333 692.666 374.667 692.666C359.067 692.666 358.4 692.533 355.333 689.333C352.533 686.4 352 684.266 351.6 673.466C350.533 650.666 353.6 647.466 375.467 647.333C387.867 647.333 390.133 647.733 393.2 650.133Z" fill="#3D6224"/>
<path d="M449.2 633.867C438 639.067 432.667 651.2 432.667 671.6C432.667 691.6 437.6 701.867 449.733 706.933C454.533 708.933 486 709.733 493.467 707.867C498.133 706.8 508.667 697.067 508.667 693.867C508.667 692.533 509.333 691.067 510 690.667C510.8 690.133 511.333 682.267 511.333 671.333C511.333 646.8 509.067 641.067 496.667 634.667C492.933 632.667 488.133 632.133 473.333 631.733C457.067 631.333 454 631.6 449.2 633.867ZM490.533 650.133C494 652.8 494 653.067 494 670.133C494 693.067 494.267 692.667 472.933 692.667C456.267 692.667 454.933 692.267 450.933 685.733C448 681.067 447.867 662.933 450.667 656.267C453.867 648.533 456.667 647.333 472.8 647.333C485.067 647.333 487.467 647.733 490.533 650.133Z" fill="#3D6224"/>
<path d="M254.667 731.333C247.867 734.266 242 740.533 239.733 746.933C238.667 750.133 238 758.4 238 768.933C238 791.2 240.667 797.6 252.667 804.533C256.267 806.666 291.333 808.266 297.6 806.666C301.867 805.6 312.667 795.6 312.667 792.8C312.667 791.6 313.333 789.866 314.133 789.066C315.067 788.133 315.6 780.266 315.6 767.466C315.6 749.333 315.333 746.933 312.8 742.8C309.067 736.933 301.733 731.333 297.467 731.333C295.6 731.333 293.733 730.666 293.333 730C292.8 729.2 285.733 728.666 276.267 728.8C263.6 728.8 258.8 729.333 254.667 731.333ZM293.467 746.8C298 748 299.333 753.066 299.333 769.2C299.333 790.266 299.067 790.533 279.333 791.066C255.733 791.866 254 790.133 254 766.666C254 754.133 254.267 752.8 257.333 749.466C260.4 746.133 261.067 746 275.6 746C283.867 746 292 746.4 293.467 746.8Z" fill="#3D6224"/>
<path d="M356.133 729.866C355.733 730.4 353.6 731.333 351.467 731.733C346.533 732.8 338.133 742.8 336.533 749.6C335.867 752.4 335.333 761.6 335.333 770C335.333 783.333 335.733 786.266 338.533 792C344.533 804.933 352 807.733 378.4 807.066C398.667 806.666 400.267 806 408.4 795.466L412.667 789.733V767.6C412.667 746.266 412.533 745.066 409.467 740.533C406.267 735.866 401.467 732.933 392.533 730.133C386.933 728.4 357.2 728.133 356.133 729.866ZM389.6 746.666C392 747.066 394.533 748.533 395.333 750C396 751.333 396.667 760 396.667 769.066C396.667 790.8 396.933 790.533 375.333 791.066C360.4 791.466 359.6 791.466 356 788.266C352.4 785.2 352.133 784.533 351.733 770.533C351.2 754.266 352.267 750.533 358.667 747.333C362.667 745.333 379.333 745.066 389.6 746.666Z" fill="#3D6224"/>
<path d="M455.333 730C454.267 730.666 452 731.333 450.267 731.333C446.8 731.333 436.667 741.2 436.667 744.666C436.667 745.866 435.867 747.6 435.067 748.4C433.867 749.6 433.333 755.6 433.333 768.4C433.333 784.533 433.6 787.333 436.267 792C439.733 798.533 443.733 802.133 450.933 805.2C455.6 807.333 459.2 807.6 475.867 807.066C494.267 806.4 495.467 806.266 499.867 802.933C502.267 800.933 506 796.266 507.867 792.4C511.067 786 511.333 784.133 511.333 767.866C511.333 754.8 510.8 749.066 509.2 745.2C506.667 739.066 500.133 732.933 495.333 731.866C493.467 731.466 490.667 730.533 488.933 729.866C484.933 728.266 457.867 728.4 455.333 730ZM487.067 746.666C489.467 747.066 492 748.666 492.667 750C493.467 751.333 494 760 494 769.2V785.866L490.133 788.533C486.8 790.933 484.267 791.333 472.8 791.333C457.867 791.333 454.133 790 450.533 783.2C448 778.133 448 760.4 450.8 753.2C452.667 748.266 453.6 747.466 458.4 746.533C464.667 745.2 480.8 745.2 487.067 746.666Z" fill="#3D6224"/>
</svg>
